{  "asset": {    "version": "2.0",    "generator": "THREE.GLTFExporter"  },  "scenes": [    {      "name": "AuxScene",      "nodes": [        1      ]    }  ],  "scene": 0,  "nodes": [    {      "mesh": 0    },    {      "children": [        0      ]    }  ],  "bufferViews": [    {      "buffer": 0,      "byteOffset": 0,      "byteLength": 1090044,      "target": 34962,      "byteStride": 12    },    {      "buffer": 0,      "byteOffset": 1090044,      "byteLength": 1090044,      "target": 34962,      "byteStride": 12    },    {      "buffer": 0,      "byteOffset": 2180088,      "byteLength": 726696,      "target": 34962,      "byteStride": 8    }  ],  "buffers": [    {      "byteLength": 2906784,      "uri": "data:application/octet-stream;base64,"    }  ],  "accessors": [    {      "bufferView": 0,      "componentType": 5126,      "count": 90837,      "max": [        25.462953567504883,        8.623543739318848,        29.721044540405273      ],      "min": [        -25.462955474853516,        -8.623543739318848,        -29.72104263305664      ],      "type": "VEC3"    },    {      "bufferView": 1,      "componentType": 5126,      "count": 90837,      "max": [        1,        1,        1      ],      "min": [        -1,        -1,        -1      ],      "type": "VEC3"    },    {      "bufferView": 2,      "componentType": 5126,      "count": 90837,      "max": [        0.9983214735984802,        0.99951171875      ],      "min": [        0.0004882961511611938,        0.0004882961511611938      ],      "type": "VEC2"    }  ],  "materials": [    {      "pbrMetallicRoughness": {        "baseColorFactor": [          0.6038273388475408,          0.6038273388475408,          0.6038273388475408,          1        ],        "metallicFactor": 0.5,        "roughnessFactor": 0.5      },      "name": "mat0"    },    {      "pbrMetallicRoughness": {        "baseColorFactor": [          0.6038273388475408,          0.6038273388475408,          0.6038273388475408,          1        ],        "metallicFactor": 0.5,        "roughnessFactor": 0.5      },      "name": "mat1"    },    {      "pbrMetallicRoughness": {        "baseColorFactor": [          0.6038273388475408,          0.6038273388475408,          0.6038273388475408,          1        ],        "metallicFactor": 0.5,        "roughnessFactor": 0.5      },      "name": "mat2"    }  ],  "meshes": [    {      "primitives": [        {          "mode": 4,          "attributes": {            "POSITION": 0,            "NORMAL": 1,            "TEXCOORD_0": 2          },          "material": 0        },        {          "mode": 4,          "attributes": {            "POSITION": 0,            "NORMAL": 1,            "TEXCOORD_0": 2          },          "material": 1        },        {          "mode": 4,          "attributes": {            "POSITION": 0,            "NORMAL": 1,            "TEXCOORD_0": 2          },          "material": 2        }      ]    }  ]}